<svg width="20" height="20" viewBox="0 0 20 20" fill="none" xmlns="http://www.w3.org/2000/svg">
<path fill-rule="evenodd" clip-rule="evenodd" d="M0 3C0 1.34315 1.34315 0 3 0H17C18.6569 0 20 1.34315 20 3V6H14C11.7909 6 10 7.79086 10 10C10 12.2091 11.7909 14 14 14H20V17C20 18.6569 18.6569 20 17 20H3C1.34315 20 0 18.6569 0 17V3ZM11 10C11 8.34315 12.3431 7 14 7H20V13H14C12.3431 13 11 11.6569 11 10ZM15 10C15 10.5523 14.5523 11 14 11C13.4477 11 13 10.5523 13 10C13 9.44772 13.4477 9 14 9C14.5523 9 15 9.44772 15 10Z" fill="#898989"/>
</svg>
