<svg width="22" height="21" viewBox="0 0 22 21" fill="none" xmlns="http://www.w3.org/2000/svg">
<path fill-rule="evenodd" clip-rule="evenodd" d="M11 0C5.20095 0 0.5 4.70095 0.5 10.5C0.5 16.2989 5.20095 21 11 21C16.7989 21 21.5 16.2989 21.5 10.5C21.5 4.70095 16.7989 0 11 0ZM11.5 8C11.5 7.44772 11.9477 7 12.5 7H16.5C17.0523 7 17.5 7.44772 17.5 8V12C17.5 12.5523 17.0523 13 16.5 13C15.9477 13 15.5 12.5523 15.5 12V10.4142L12.2071 13.7071C11.8166 14.0976 11.1834 14.0976 10.7929 13.7071L9.5 12.4142L6.70711 15.2071C6.31658 15.5976 5.68342 15.5976 5.29289 15.2071C4.90237 14.8166 4.90237 14.1834 5.29289 13.7929L8.79289 10.2929C9.18342 9.90237 9.81658 9.90237 10.2071 10.2929L11.5 11.5858L14.0858 9H12.5C11.9477 9 11.5 8.55228 11.5 8Z" fill="#898989"/>
</svg>
