<svg width="20" height="20" viewBox="0 0 20 20" fill="none" xmlns="http://www.w3.org/2000/svg">
<mask id="path-1-inside-1_37_3016" fill="white">
<path fill-rule="evenodd" clip-rule="evenodd" d="M15.717 -0.000854492C17.2668 -0.000854492 18.5225 1.27728 18.5225 2.85595L19.4597 17.1412C19.4597 18.7198 18.2027 19.9991 16.6529 19.9991H3.55667C2.00568 19.9991 0.75 18.7198 0.75 17.1412L1.68594 2.85595C1.68594 1.27728 2.94278 -0.000854492 4.49261 -0.000854492H15.717ZM13.5879 10.0455L10.4066 14.8175C10.331 14.931 10.2036 14.9991 10.0672 14.9991C9.84189 14.9991 9.65927 14.8164 9.65927 14.5911V11.5871H7.15792C7.0774 11.5871 6.99872 11.5632 6.93171 11.5186C6.74426 11.3935 6.69362 11.1403 6.81847 10.9528L9.9998 6.18082C10.0755 6.06731 10.2028 5.99915 10.3393 5.99915C10.5645 5.99915 10.7471 6.18191 10.7471 6.40717V9.41131H13.2484C13.3289 9.41131 13.4076 9.43507 13.4745 9.47974C13.6621 9.60466 13.7128 9.85802 13.5879 10.0455Z"/>
</mask>
<path fill-rule="evenodd" clip-rule="evenodd" d="M15.717 -0.000854492C17.2668 -0.000854492 18.5225 1.27728 18.5225 2.85595L19.4597 17.1412C19.4597 18.7198 18.2027 19.9991 16.6529 19.9991H3.55667C2.00568 19.9991 0.75 18.7198 0.75 17.1412L1.68594 2.85595C1.68594 1.27728 2.94278 -0.000854492 4.49261 -0.000854492H15.717ZM13.5879 10.0455L10.4066 14.8175C10.331 14.931 10.2036 14.9991 10.0672 14.9991C9.84189 14.9991 9.65927 14.8164 9.65927 14.5911V11.5871H7.15792C7.0774 11.5871 6.99872 11.5632 6.93171 11.5186C6.74426 11.3935 6.69362 11.1403 6.81847 10.9528L9.9998 6.18082C10.0755 6.06731 10.2028 5.99915 10.3393 5.99915C10.5645 5.99915 10.7471 6.18191 10.7471 6.40717V9.41131H13.2484C13.3289 9.41131 13.4076 9.43507 13.4745 9.47974C13.6621 9.60466 13.7128 9.85802 13.5879 10.0455Z" fill="#898989"/>
<path d="M18.5225 2.85595H17.0225V2.90511L17.0257 2.95415L18.5225 2.85595ZM19.4597 17.1412H20.9597V17.092L20.9565 17.043L19.4597 17.1412ZM0.75 17.1412L-0.746791 17.0431L-0.75 17.0921V17.1412H0.75ZM1.68594 2.85595L3.18273 2.95402L3.18594 2.90504V2.85595H1.68594ZM10.4066 14.8175L9.15852 13.9854L9.15796 13.9863L10.4066 14.8175ZM13.5879 10.0455L14.8359 10.8776L14.8362 10.8772L13.5879 10.0455ZM9.65927 11.5871H11.1593V10.0871H9.65927V11.5871ZM6.93171 11.5186L6.09924 12.7663L6.09965 12.7666L6.93171 11.5186ZM6.81847 10.9528L5.5704 10.1207L5.56991 10.1214L6.81847 10.9528ZM9.9998 6.18082L8.75185 5.34859L8.75173 5.34876L9.9998 6.18082ZM10.7471 9.41131H9.24714V10.9113H10.7471V9.41131ZM13.4745 9.47974L12.6419 10.7274L12.6433 10.7284L13.4745 9.47974ZM20.0225 2.85595C20.0225 0.474427 18.1206 -1.50085 15.717 -1.50085V1.49915C16.413 1.49915 17.0225 2.08014 17.0225 2.85595H20.0225ZM20.9565 17.043L20.0192 2.75775L17.0257 2.95415L17.9629 17.2394L20.9565 17.043ZM16.6529 21.4991C19.0564 21.4991 20.9597 19.5228 20.9597 17.1412H17.9597C17.9597 17.9169 17.349 18.4991 16.6529 18.4991V21.4991ZM3.55667 21.4991H16.6529V18.4991H3.55667V21.4991ZM-0.75 17.1412C-0.75 19.5223 1.15152 21.4991 3.55667 21.4991V18.4991C2.85984 18.4991 2.25 17.9174 2.25 17.1412H-0.75ZM0.189152 2.75789L-0.746791 17.0431L2.24679 17.2392L3.18273 2.95402L0.189152 2.75789ZM4.49261 -1.50085C2.08981 -1.50085 0.185943 0.47361 0.185943 2.85595H3.18594C3.18594 2.08096 3.79575 1.49915 4.49261 1.49915V-1.50085ZM15.717 -1.50085H4.49261V1.49915H15.717V-1.50085ZM11.6547 15.6495L14.8359 10.8776L12.3398 9.21349L9.15852 13.9854L11.6547 15.6495ZM10.0672 16.4991C10.7046 16.4991 11.3011 16.1807 11.6552 15.6487L9.15796 13.9863C9.361 13.6813 9.70261 13.4991 10.0672 13.4991V16.4991ZM8.15927 14.5911C8.15927 15.6442 9.01281 16.4991 10.0672 16.4991V13.4991C10.671 13.4991 11.1593 13.9886 11.1593 14.5911H8.15927ZM8.15927 11.5871V14.5911H11.1593V11.5871H8.15927ZM7.15792 13.0871H9.65927V10.0871H7.15792V13.0871ZM6.09965 12.7666C6.41227 12.975 6.78031 13.0871 7.15792 13.0871V10.0871C7.37449 10.0871 7.58516 10.1514 7.76376 10.2705L6.09965 12.7666ZM5.56991 10.1214C4.98628 10.998 5.22303 12.1818 6.09924 12.7663L7.76417 10.2708C8.26549 10.6052 8.40096 11.2825 8.06703 11.7841L5.56991 10.1214ZM8.75173 5.34876L5.5704 10.1207L8.06654 11.7848L11.2479 7.01288L8.75173 5.34876ZM10.3393 4.49915C9.70102 4.49915 9.10558 4.81815 8.75185 5.34859L11.2478 7.01305C11.0454 7.31646 10.7046 7.49915 10.3393 7.49915V4.49915ZM12.2471 6.40717C12.2471 5.35413 11.3936 4.49915 10.3393 4.49915V7.49915C9.73544 7.49915 9.24714 7.00968 9.24714 6.40717H12.2471ZM12.2471 9.41131V6.40717H9.24714V9.41131H12.2471ZM13.2484 7.91131H10.7471V10.9113H13.2484V7.91131ZM14.3071 8.23205C13.993 8.0224 13.6245 7.91131 13.2484 7.91131V10.9113C13.0334 10.9113 12.8221 10.8477 12.6419 10.7274L14.3071 8.23205ZM14.8362 10.8772C15.4201 10.0007 15.1838 8.81564 14.3057 8.23111L12.6433 10.7284C12.1405 10.3937 12.0055 9.71535 12.3395 9.21391L14.8362 10.8772Z" fill="#898989" mask="url(#path-1-inside-1_37_3016)"/>
</svg>
