<svg width="20" height="20" viewBox="0 0 20 20" fill="none" xmlns="http://www.w3.org/2000/svg">
<path fill-rule="evenodd" clip-rule="evenodd" d="M0.853075 6.40279C0.318422 6.77705 0 7.38863 0 8.04126V17.9999C0 19.1045 0.895431 19.9999 2 19.9999H18C19.1046 19.9999 20 19.1045 20 17.9999V8.04126C20 7.38863 19.6816 6.77705 19.1469 6.40279L12.2938 1.60564C10.9166 0.641543 9.08343 0.641545 7.70615 1.60564L0.853075 6.40279ZM10 9.99995C8.89543 9.99995 8 10.8954 8 11.9999V15.9999C8 17.1045 8.89543 17.9999 10 17.9999C11.1046 17.9999 12 17.1045 12 15.9999V11.9999C12 10.8954 11.1046 9.99995 10 9.99995Z" fill="#07C160"/>
</svg>
