<svg width="21" height="21" viewBox="0 0 21 21" fill="none" xmlns="http://www.w3.org/2000/svg">
<path fill-rule="evenodd" clip-rule="evenodd" d="M10.5 0C4.70095 0 0 4.70095 0 10.5C0 16.2989 4.70095 21 10.5 21C16.2989 21 21 16.2989 21 10.5C21 4.70095 16.2989 0 10.5 0ZM5.12134 11.7071C4.73082 12.0976 4.73082 12.7308 5.12134 13.1213C5.51187 13.5118 6.14503 13.5118 6.53556 13.1213L12.8995 6.75734L7.24266 6.75734L8.65688 8.17155L5.12134 11.7071ZM15.0208 10.2929C15.4113 9.90237 15.4113 9.2692 15.0208 8.87868C14.6303 8.48816 13.9971 8.48816 13.6066 8.87868L7.24264 15.2426H12.8995L11.4853 13.8284L15.0208 10.2929Z" fill="#898989"/>
</svg>
